<svg width="1085" height="175" viewBox="0 0 1085 175" fill="none" xmlns="http://www.w3.org/2000/svg">
    <path d="M181.54 12.55H211V119.46H263.9V142.55H181.54V12.55Z" fill="white"/>
    <path d="M272.84 108.73V47.46H299V105.1C299 118.01 304.27 124.19 315.54 124.19C326.63 124.19 335.36 117.28 335.36 103.28V47.46H361.54V142.55H335.39V127.64C330.48 137.28 320.84 144.55 305.21 144.55C286.66 144.55 272.84 133.64 272.84 108.73Z"
          fill="white"/>
    <path d="M373.93 96.19V94.73C373.93 64.01 395.93 45.28 423.03 45.28C445.03 45.28 465.39 54.91 467.75 82.19H442.84C441 71.1 434.3 66 423.57 66C409.93 66 400.84 76.18 400.84 94.36V95.82C400.84 114.91 409.39 124.73 424.12 124.73C434.66 124.73 443.21 118.54 444.48 106.36H468.3C466.85 128.91 450.48 144.54 422.84 144.54C395 144.55 373.93 127.28 373.93 96.19Z"
          fill="white"/>
    <path d="M478.24 20.19C478.24 12 484.79 5.82001 493.15 5.82001C501.7 5.82001 508.24 12 508.24 20.19C508.24 28.38 501.7 34.55 493.15 34.55C484.79 34.55 478.24 28.37 478.24 20.19ZM480.24 47.46H506.42V142.55H480.24V47.46Z"
          fill="white"/>
    <path d="M519 96.37V94.92C519 63.64 537 45.28 560.82 45.28C576.09 45.28 585.55 52.01 590.82 61.64V4.37H617V142.55H590.84V126.74C585.93 136.37 574.29 144.55 560.29 144.55C537.2 144.55 519 128 519 96.37ZM591.55 95.46V94C591.55 75.09 583.18 65.45 568.82 65.45C554.09 65.45 545.91 75.45 545.91 94.36V95.82C545.91 114.73 555 124 568.09 124C581.93 124 591.57 114.74 591.57 95.46H591.55Z"
          fill="white"/>
    <path d="M629.38 112.74H653.93C655.02 121.28 659.2 126.19 670.66 126.19C680.84 126.19 685.57 122.37 685.57 115.83C685.57 109.29 679.93 106.55 666.29 104.55C641 100.73 631.2 93.46 631.2 74.92C631.2 55.1 649.38 45.28 668.84 45.28C689.93 45.28 705.75 52.91 708.11 74.73H683.93C682.47 66.92 678.11 63.28 669.02 63.28C660.47 63.28 655.56 67.28 655.56 73.1C655.56 79.1 660.11 81.46 673.93 83.46C697.75 86.92 710.84 92.92 710.84 113.28C710.84 133.83 695.93 144.55 670.84 144.55C645.2 144.55 630.29 133.28 629.38 112.74Z"
          fill="white"/>
    <path d="M723.18 47.46H749.55V62.37C752.701 57.1393 757.154 52.8152 762.475 49.8199C767.796 46.8245 773.803 45.2603 779.91 45.28C803.18 45.28 821.37 62.55 821.37 94.01V95.46C821.37 126.92 803.55 144.55 779.91 144.55C765.18 144.55 754.45 137.28 749.55 128.01V174.92H723.18V47.46ZM794.64 95.64V94.19C794.64 74.92 785.18 65.46 771.91 65.46C758.09 65.46 748.64 75.1 748.64 94.19V95.64C748.64 114.74 757.73 124.01 772.09 124.01C786.64 124 794.64 114.19 794.64 95.64Z"
          fill="white"/>
    <path d="M827.92 116.19C827.92 94.01 848.29 85.64 877.38 85.64H888.11V81.83C888.11 70.55 884.65 64.37 872.65 64.37C862.29 64.37 857.56 69.64 856.47 77.83H831.56C833.2 55.28 851 45.28 874.29 45.28C897.58 45.28 914.11 54.73 914.11 80.55V142.55H888.47V131.1C883.02 138.74 874.65 144.55 859.74 144.55C842.47 144.55 827.92 136.19 827.92 116.19ZM888.11 109.28V101.28H877.93C862.65 101.28 853.74 104.55 853.74 114.74C853.74 121.64 857.92 126.19 867.56 126.19C879.2 126.19 888.11 119.83 888.11 109.28Z"
          fill="white"/>
    <path d="M931.16 47.46H957.52V65.64C963.52 52.91 972.8 46.19 988.25 46.01V70.55C968.8 70.37 957.52 76.73 957.52 94.92V142.55H931.16V47.46Z"
          fill="white"/>
    <path d="M997.23 4.37H1023.6V87.64L1054.14 47.46H1082.14L1047.6 90.73L1084.87 142.55H1055.05L1023.6 97.64V142.55H997.23V4.37Z"
          fill="white"/>
    <path d="M65.7701 95.03V152.06L49.3301 142.48V104.54L65.7701 95.03Z" fill="#FF8F8F"/>
    <path d="M131.54 95.03L115.09 104.54L65.77 76.03L16.44 104.54L0 95.03L65.77 57.02L131.54 95.03Z" fill="#FF3D3D"/>
    <path d="M65.7701 19.01V57.02L49.3301 66.52V9.5L65.7701 19.01Z" fill="#FF8F8F"/>
    <path d="M131.54 95.03L131.53 114.04L115.09 123.55V104.54L131.54 95.03Z" fill="#C90C0C"/>
    <path d="M82.2095 104.54V142.55L65.7695 152.06V95.03L82.2095 104.54Z" fill="#C90C0C"/>
    <path d="M131.54 57.02L98.65 76.03L82.21 66.52L131.54 38.01V57.02Z" fill="#C90C0C"/>
    <path d="M131.54 38.01L82.21 66.52V47.52L115.09 28.51L131.54 38.01Z" fill="#FF3D3D"/>
    <path d="M49.33 66.52L32.88 76.03L0 57.02V38.01L49.33 66.52Z" fill="#FF8F8F"/>
    <path d="M49.33 47.52V66.52L0 38.01L16.44 28.51L49.33 47.52Z" fill="#FF3D3D"/>
    <path d="M16.44 104.54V123.55L0 114.04V95.03L16.44 104.54Z" fill="#FF8F8F"/>
    <path d="M65.7695 76.03V95.03L16.4395 123.55V104.54L65.7695 76.03Z" fill="#C90C0C"/>
    <path d="M115.09 123.55L65.7695 95.03V76.03L115.09 104.54V123.55Z" fill="#FF8F8F"/>
    <path d="M82.2101 9.5L65.7701 19.01L49.3301 9.5L65.7701 0L82.2101 9.5Z" fill="#FF3D3D"/>
    <path d="M82.2095 9.5V66.52L65.7695 57.02V19.01L82.2095 9.5Z" fill="#C90C0C"/>
</svg>
